<?xml version="1.0" encoding="utf-8"?>
<!-- Generator: Adobe Illustrator 23.0.4, SVG Export Plug-In . SVG Version: 6.00 Build 0)  -->
<svg version="1.1" id="Layer_1" xmlns="http://www.w3.org/2000/svg" xmlns:xlink="http://www.w3.org/1999/xlink" x="0px" y="0px"
	 viewBox="0 0 595.9 178.5" style="enable-background:new 0 0 595.9 178.5;" xml:space="preserve">
<style type="text/css">
	.st0{fill-rule:evenodd;clip-rule:evenodd;fill:#FFFFFF;}
	.st1{fill-rule:evenodd;clip-rule:evenodd;fill:#002D74;}
	.st2{fill:#FFFFFF;}
</style>
<g>
	<polygon class="st0" points="31.8,27.8 562,27.8 545.6,120.9 15.4,120.9 	"/>
	<g>
		<g>
			<polygon class="st1" points="23.6,115.9 38.4,32.6 73,32.6 58.5,115.9 			"/>
			<path class="st1" d="M138.9,44.6h16.3l8.5,52.6H148l-2.1-6.3h-15.3l-2.7,6.3h-17L138.9,44.6z M103.8,44.6
				c17,0,16.4,15.3,16.4,15.3c0.2,21.5-21.8,21.3-21.8,21.3H86.5l-2.7,16H67.5l-3.4,18.6h99.2l15.3-83.2H79.8l-2.1,12H103.8z"/>
			<path class="st1" d="M89.1,68.5L91,57h6.5c0,0,7.8-0.3,6.6,5.7c0,0-0.5,5.8-5.6,5.8S89.1,68.5,89.1,68.5z"/>
			<polygon class="st1" points="135.8,79.9 145.3,79.9 143.2,61.9 			"/>
			<polygon class="st1" points="169.3,115.9 172.8,97.2 186.8,97.2 191.7,70 203.6,96.8 220.1,96.8 228.9,44.6 213.3,44.6 
				208.8,72.9 195.3,44.6 182.2,44.6 184.4,32.6 238.4,32.6 223.6,115.9 			"/>
			<polygon class="st1" points="229.1,115.9 232.6,96.6 273.4,96.6 275.3,85.2 249.6,85.2 250.9,76.8 272,76.8 273.9,64.1 
				252.8,64.1 254.2,57.4 279.1,57.4 281.2,44.6 242,44.6 244,32.6 290.2,32.6 275.6,115.9 			"/>
			<polygon class="st1" points="281.5,115.9 284.8,97.2 322,97.2 324.3,85.1 301.3,85.1 308.2,44.6 294.2,44.6 296.4,32.6 
				359.4,32.6 344.9,115.9 			"/>
			<g>
				<path class="st1" d="M350.4,115.9l3.3-18.6h15.8l3.1-19.1h8.7c6.4,0,4.9,5.9,4.9,5.9l-0.6,13.2h16.9c-1.2-0.1-0.8-4.1-0.8-4.1
					l0.6-13.9c0.2-5.3-6-7.6-6-7.6c9.8-2.7,10.5-15.4,10.5-15.4c1.3-12-13.4-11.6-13.4-11.6h-30.3l2.1-12H417l-14.5,83.2H350.4z"/>
				<path class="st1" d="M374.5,67.4l1.9-11.5h7.6c0,0,7.8-0.3,6.6,5.7c0,0-0.5,5.8-5.6,5.8C379.8,67.4,374.5,67.4,374.5,67.4z"/>
			</g>
			<path class="st1" d="M484.6,44.6l5.9,17.3l11.1-17.3h18.8l-24.7,33l-3.2,19.5h-16.3l2.3-19.5l-12-33H484.6z M538.2,115.9
				l14.6-83.2H423.5l-2.1,12h39.3l-2.1,12.8h-25l-1.3,6.7h21.1l-2,12.7h-21.1l-1.2,8.4h25.7l-1.9,11.4H412l-3.5,19.3L538.2,115.9
				L538.2,115.9z"/>
		</g>
	</g>
	<g>
		<path class="st0" d="M573.3,34.8v-3.7c0-0.2,0-0.4,0.1-0.4c0.1-0.1,0.4-0.1,0.8-0.1c0.6,0,1.1,0.1,1.5,0.3
			c0.7,0.3,1.1,0.9,1.1,1.8c0,0.9-0.4,1.5-1.2,1.8C575.1,34.7,574.4,34.8,573.3,34.8z M570.5,39.9h4.1v-0.3c-0.6,0-0.9-0.1-1.1-0.3
			c-0.2-0.2-0.2-0.5-0.2-1.1v-2.9h0.8l3.5,4.6h2.4v-0.3c-0.3,0-0.5-0.1-0.7-0.2c-0.2-0.1-0.4-0.3-0.6-0.5l-3.1-3.8
			c0.8-0.1,1.5-0.4,2-0.8c0.5-0.4,0.7-1,0.7-1.7c0-1.1-0.5-1.9-1.6-2.3c-0.6-0.2-1.3-0.3-2.1-0.3h-4.1v0.3c0.5,0,0.9,0.1,1,0.3
			c0.2,0.2,0.2,0.5,0.2,1V38c0,0.6-0.1,1-0.2,1.2c-0.1,0.2-0.5,0.3-1.1,0.3L570.5,39.9L570.5,39.9z"/>
		<g>
			<path class="st2" d="M574.8,43.5c-4.5,0-8.2-3.7-8.2-8.2s3.7-8.2,8.2-8.2s8.2,3.7,8.2,8.2S579.3,43.5,574.8,43.5L574.8,43.5z
				 M574.8,28.2c-3.9,0-7.1,3.2-7.1,7.1s3.2,7.1,7.1,7.1c3.9,0,7.1-3.2,7.1-7.1S578.7,28.2,574.8,28.2L574.8,28.2z"/>
			<path class="st2" d="M476.2,26.1"/>
		</g>
	</g>
	<g>
		<g>
			<path class="st0" d="M137.6,133.7c0,2.9-1.2,5.3-3.6,7.1c-2.4,1.8-5.8,2.7-10.2,2.7h-2.4l-1.8,8h-6.4l5.7-24.6h8.8
				c1.6,0,3,0.1,4.2,0.3c1.2,0.2,2.2,0.6,3.1,1.1c0.9,0.5,1.5,1.2,2,2.1C137.4,131.3,137.6,132.4,137.6,133.7z M130.8,134.3
				c0-1-0.3-1.7-1-2.1c-0.7-0.5-1.7-0.7-3.1-0.7h-2.6l-1.7,7.3h2.3c1.9,0,3.4-0.4,4.5-1.2C130.3,136.9,130.8,135.8,130.8,134.3z"/>
			<path class="st0" d="M152.7,146.6c-0.6,0.4-1.2,0.8-1.9,1c-0.7,0.3-1.3,0.4-1.9,0.4c-0.9,0-1.6-0.1-2.1-0.4
				c-0.5-0.3-0.7-0.7-0.7-1.3c0-0.7,0.2-1.3,0.5-1.7c0.4-0.4,0.9-0.8,1.5-1c0.7-0.2,1.4-0.4,2.4-0.5c0.9-0.1,1.9-0.2,3-0.3
				L152.7,146.6z M151.6,151.5h5.9l2.9-12.6c0.1-0.3,0.1-0.6,0.2-0.9c0-0.4,0.1-0.6,0.1-0.9c0-1.6-0.7-2.8-2-3.5
				c-1.4-0.8-3.5-1.1-6.4-1.1c-1.4,0-2.9,0.1-4.3,0.3c-1.5,0.2-2.5,0.4-3.2,0.6l-0.9,4.4h0.5c0.6-0.2,1.5-0.5,2.7-0.8
				s2.3-0.5,3.2-0.5c1.4,0,2.5,0.2,3.3,0.5c0.7,0.3,1.1,0.9,1.1,1.6c0,0.2,0,0.4-0.1,0.5c0,0.1-0.1,0.3-0.1,0.3
				c-2.1,0.1-4,0.3-5.7,0.6c-1.8,0.3-3.3,0.7-4.6,1.2c-1.4,0.6-2.4,1.4-3.1,2.4s-1,2.3-1,3.7s0.5,2.5,1.5,3.4s2.2,1.3,3.8,1.3
				c1,0,1.7-0.1,2.3-0.2c0.5-0.1,1.1-0.3,1.7-0.6c0.5-0.2,0.9-0.5,1.5-0.8c0.5-0.3,1-0.6,1.4-0.9L151.6,151.5z"/>
			<path class="st0" d="M187.4,137.1c0,0.3,0,0.7-0.1,1.1c0,0.4-0.1,0.8-0.2,1.2l-2.8,12.1h-6l2.1-9.2c0.2-0.7,0.3-1.3,0.4-1.7
				c0.1-0.5,0.1-0.9,0.1-1.4c0-0.7-0.2-1.2-0.5-1.6c-0.4-0.3-1-0.5-2-0.5c-0.5,0-1,0.1-1.6,0.3s-1.3,0.5-2.1,0.9l-3,13.1h-6
				l4.3-18.5h6l-0.5,2c1.2-0.8,2.3-1.4,3.3-1.9c1-0.4,2.1-0.7,3.3-0.7c1.7,0,3,0.4,3.9,1.2C186.9,134.5,187.4,135.6,187.4,137.1z"/>
			<path class="st0" d="M199.4,139.9c0.4-1.2,1.1-2.1,1.9-2.8c0.8-0.7,1.9-1,3.1-1c1,0,1.8,0.2,2.3,0.7s0.8,1.1,0.8,2
				c0,0.2,0,0.3,0,0.5s0,0.3-0.1,0.5h-8V139.9z M207,151.6c1.3-0.3,2.5-0.6,3.7-1.2l1.1-4.8h-0.7c-0.9,0.5-1.9,1-3,1.5
				c-1.2,0.4-2.4,0.7-3.7,0.7c-1.9,0-3.3-0.4-4.2-1.1s-1.4-1.7-1.4-3c0-0.1,0-0.1,0-0.2s0-0.1,0-0.2h13.8c0.2-0.7,0.4-1.4,0.6-2.1
				c0.1-0.7,0.2-1.4,0.2-2.2c0-2.2-0.7-3.8-2.1-5c-1.4-1.1-3.5-1.7-6.3-1.7c-1.8,0-3.5,0.3-5,0.9c-1.5,0.6-2.8,1.4-3.8,2.5
				c-1.1,1.1-1.9,2.3-2.4,3.7c-0.6,1.4-0.8,3-0.8,4.6c0,2.5,0.9,4.4,2.6,5.8c1.7,1.4,4.2,2.1,7.3,2.1
				C204.3,152,205.7,151.9,207,151.6z"/>
			<polygon class="st0" points="229.6,125.8 223.6,151.5 217.6,151.5 223.6,125.8 			"/>
			<path class="st0" d="M238.9,139.9c0.4-1.2,1.1-2.1,1.9-2.8c0.8-0.7,1.9-1,3.1-1c1,0,1.8,0.2,2.3,0.7s0.8,1.1,0.8,2
				c0,0.2,0,0.3,0,0.5s0,0.3-0.1,0.5h-8V139.9z M246.5,151.6c1.3-0.3,2.5-0.6,3.7-1.2l1.1-4.8h-0.7c-0.9,0.5-1.9,1-3,1.5
				c-1.2,0.4-2.4,0.7-3.7,0.7c-1.9,0-3.3-0.4-4.2-1.1c-0.9-0.7-1.4-1.7-1.4-3c0-0.1,0-0.1,0-0.2s0-0.1,0-0.2h13.8
				c0.2-0.7,0.4-1.4,0.6-2.1c0.2-0.7,0.2-1.4,0.2-2.2c0-2.2-0.7-3.8-2.1-5c-1.4-1.1-3.5-1.7-6.3-1.7c-1.8,0-3.5,0.3-5,0.9
				c-1.5,0.6-2.8,1.4-3.8,2.5c-1.1,1.1-1.9,2.3-2.4,3.7c-0.6,1.4-0.8,3-0.8,4.6c0,2.5,0.9,4.4,2.6,5.8c1.7,1.4,4.2,2.1,7.3,2.1
				C243.8,152,245.2,151.9,246.5,151.6z"/>
			<path class="st0" d="M264.3,152c-1.6,0-3.1-0.1-4.6-0.4c-1.5-0.3-2.6-0.6-3.4-1l1.1-4.9h0.5c0.2,0.2,0.5,0.4,0.9,0.7
				s0.9,0.5,1.6,0.8c0.6,0.3,1.3,0.5,2,0.7c0.8,0.2,1.6,0.3,2.5,0.3c1.3,0,2.3-0.2,3-0.5s1-0.7,1-1.3c0-0.4-0.2-0.8-0.7-1
				s-1.5-0.5-2.9-0.9c-2.5-0.6-4.3-1.3-5.2-2.1c-0.9-0.8-1.4-1.9-1.4-3.1c0-2.1,0.9-3.7,2.8-4.9s4.4-1.8,7.6-1.8
				c1.4,0,2.8,0.1,4.2,0.4c1.4,0.3,2.4,0.6,3.1,0.9l-1.1,4.7h-0.5c-0.8-0.6-1.7-1.1-2.8-1.5c-1.1-0.4-2.2-0.6-3.4-0.6
				c-1.3,0-2.2,0.2-2.9,0.5c-0.7,0.3-1,0.8-1,1.4c0,0.5,0.3,0.9,0.9,1.1c0.6,0.3,1.5,0.5,2.8,0.8c2.3,0.5,4,1.1,5.1,1.9
				c1,0.8,1.5,1.8,1.5,3.2c0,2.1-0.9,3.7-2.8,4.9C270.1,151.4,267.5,152,264.3,152z"/>
			<path class="st0" d="M318.2,125.8l-5.9,25.7h-6l0.4-1.9c-0.6,0.4-1.1,0.7-1.5,1s-0.9,0.6-1.4,0.8s-1,0.4-1.5,0.5
				s-1.1,0.2-1.7,0.2c-1.8,0-3.2-0.6-4.3-1.7c-1.1-1.2-1.6-2.8-1.6-5c0-1.8,0.3-3.4,0.8-5c0.6-1.5,1.3-2.9,2.3-4.1
				c1-1.2,2.1-2.1,3.4-2.8s2.7-1,4.1-1c1,0,1.9,0.1,2.6,0.3s1.5,0.5,2.3,0.9l1.8-7.9C312,125.8,318.2,125.8,318.2,125.8z
				 M309.5,137.3c-0.3-0.2-0.7-0.3-1.3-0.4c-0.5-0.1-1-0.2-1.4-0.2c-0.9,0-1.8,0.2-2.6,0.6c-0.8,0.4-1.4,1-1.9,1.7s-0.8,1.5-1.1,2.5
				c-0.3,1-0.4,2-0.4,2.9c0,1.1,0.3,1.9,0.8,2.4s1.3,0.8,2.3,0.8c0.5,0,1.1-0.1,1.7-0.4c0.6-0.2,1.2-0.5,1.7-0.9L309.5,137.3z"/>
			<path class="st0" d="M327.5,139.9c0.4-1.2,1.1-2.1,1.9-2.8s1.9-1,3.1-1c1,0,1.8,0.2,2.3,0.7s0.8,1.1,0.8,2c0,0.2,0,0.3,0,0.5
				s0,0.3-0.1,0.5h-8V139.9z M335.1,151.6c1.3-0.3,2.5-0.6,3.7-1.2l1.1-4.8h-0.7c-0.9,0.5-1.9,1-3,1.5c-1.2,0.4-2.4,0.7-3.7,0.7
				c-1.9,0-3.3-0.4-4.2-1.1c-0.9-0.7-1.4-1.7-1.4-3c0-0.1,0-0.1,0-0.2s0-0.1,0-0.2h13.8c0.2-0.7,0.4-1.4,0.6-2.1
				c0.1-0.7,0.2-1.4,0.2-2.2c0-2.2-0.7-3.8-2.1-5c-1.4-1.1-3.5-1.7-6.3-1.7c-1.8,0-3.5,0.3-5,0.9c-1.5,0.6-2.8,1.4-3.8,2.5
				c-1.1,1.1-1.9,2.3-2.4,3.7c-0.6,1.4-0.8,3-0.8,4.6c0,2.5,0.9,4.4,2.6,5.8c1.7,1.4,4.2,2.1,7.3,2.1
				C332.4,152,333.8,151.9,335.1,151.6z"/>
			<polygon class="st0" points="387.6,126.9 375.1,142 372.9,151.5 366.5,151.5 368.6,142.3 363,126.9 369.8,126.9 372.9,136.5 
				380.3,126.9 			"/>
			<path class="st0" d="M394.5,139.9c0.4-1.2,1.1-2.1,1.9-2.8s1.9-1,3.1-1c1,0,1.8,0.2,2.3,0.7s0.8,1.1,0.8,2c0,0.2,0,0.3,0,0.5
				s0,0.3-0.1,0.5h-8V139.9z M402.1,151.6c1.3-0.3,2.5-0.6,3.7-1.2l1.1-4.8h-0.7c-0.9,0.5-1.9,1-3,1.5c-1.2,0.4-2.4,0.7-3.7,0.7
				c-1.9,0-3.3-0.4-4.2-1.1c-0.9-0.7-1.4-1.7-1.4-3c0-0.1,0-0.1,0-0.2s0-0.1,0-0.2h13.8c0.2-0.7,0.4-1.4,0.6-2.1
				c0.1-0.7,0.2-1.4,0.2-2.2c0-2.2-0.7-3.8-2.1-5c-1.4-1.1-3.5-1.7-6.3-1.7c-1.8,0-3.5,0.3-5,0.9c-1.5,0.6-2.8,1.4-3.8,2.5
				c-1.1,1.1-1.9,2.3-2.4,3.7c-0.6,1.4-0.8,3-0.8,4.6c0,2.5,0.9,4.4,2.6,5.8c1.7,1.4,4.2,2.1,7.3,2.1
				C399.5,152,400.9,151.9,402.1,151.6z"/>
			<path class="st0" d="M419.9,152c-1.6,0-3.1-0.1-4.6-0.4c-1.5-0.3-2.6-0.6-3.4-1l1.1-4.9h0.5c0.2,0.2,0.5,0.4,0.9,0.7
				s0.9,0.5,1.6,0.8c0.6,0.3,1.3,0.5,2,0.7c0.8,0.2,1.6,0.3,2.5,0.3c1.3,0,2.3-0.2,3-0.5s1-0.7,1-1.3c0-0.4-0.2-0.8-0.7-1
				s-1.5-0.5-2.9-0.9c-2.5-0.6-4.3-1.3-5.2-2.1c-0.9-0.8-1.4-1.9-1.4-3.1c0-2.1,0.9-3.7,2.8-4.9s4.4-1.8,7.6-1.8
				c1.4,0,2.8,0.1,4.2,0.4c1.4,0.3,2.4,0.6,3.1,0.9l-1.1,4.7h-0.5c-0.8-0.6-1.7-1.1-2.8-1.5c-1.1-0.4-2.2-0.6-3.4-0.6
				c-1.3,0-2.2,0.2-2.9,0.5c-0.7,0.3-1,0.8-1,1.4c0,0.5,0.3,0.9,0.9,1.1c0.6,0.3,1.5,0.5,2.8,0.8c2.3,0.5,4,1.1,5.1,1.9
				c1,0.8,1.5,1.8,1.5,3.2c0,2.1-0.9,3.7-2.8,4.9C425.7,151.4,423.2,152,419.9,152z"/>
			<path class="st0" d="M457,139.7c0,1.7-0.3,3.4-0.9,4.9s-1.4,2.8-2.5,3.9c-1.1,1.1-2.4,2-3.8,2.6c-1.5,0.6-3.2,0.9-5.1,0.9
				c-2.8,0-4.9-0.7-6.4-2s-2.2-3.1-2.2-5.5c0-1.6,0.3-3.2,0.8-4.7s1.4-2.8,2.4-3.9c1-1.1,2.3-2,3.9-2.6c1.5-0.6,3.2-1,5.1-1
				c2.8,0,4.9,0.7,6.4,2C456.2,135.6,457,137.4,457,139.7z M449.2,145.8c0.5-0.8,0.9-1.6,1.2-2.5c0.3-0.9,0.4-2,0.4-3.3
				c0-1.1-0.2-2-0.7-2.6s-1.3-0.9-2.4-0.9c-0.8,0-1.6,0.2-2.2,0.6c-0.6,0.4-1.2,1-1.7,1.7s-0.8,1.5-1.1,2.6s-0.4,2.1-0.4,3.1
				c0,1.3,0.3,2.2,0.8,2.7c0.6,0.5,1.3,0.8,2.3,0.8c0.7,0,1.4-0.2,2.1-0.6C448.2,147,448.8,146.5,449.2,145.8z"/>
		</g>
	</g>
</g>
</svg>
